<?xml version="1.0" encoding="UTF-8"?>
<!DOCTYPE svg PUBLIC "-//W3C//DTD SVG 1.1//EN" "http://www.w3.org/Graphics/SVG/1.1/DTD/svg11.dtd">
<!-- Creator: CorelDRAW 2020 (64 Bit) -->
<svg xmlns="http://www.w3.org/2000/svg" xml:space="preserve" width="297mm" height="210mm" version="1.1" style="shape-rendering:geometricPrecision; text-rendering:geometricPrecision; image-rendering:optimizeQuality; fill-rule:evenodd; clip-rule:evenodd"
viewBox="0 0 29700 21000"
 xmlns:xlink="http://www.w3.org/1999/xlink"
 xmlns:xodm="http://www.corel.com/coreldraw/odm/2003">
 <defs>
  <style type="text/css">
   <![CDATA[
    .str4 {stroke:#182C4C;stroke-width:20;stroke-miterlimit:22.9256}
    .str2 {stroke:#233862;stroke-width:20;stroke-miterlimit:22.9256}
    .str1 {stroke:#2B478A;stroke-width:20;stroke-miterlimit:22.9256}
    .str3 {stroke:#ED7D2B;stroke-width:20;stroke-miterlimit:22.9256}
    .str0 {stroke:#F99746;stroke-width:20;stroke-miterlimit:22.9256}
    .fil9 {fill:#847059}
    .fil6 {fill:#847059}
    .fil24 {fill:#182C4C}
    .fil27 {fill:#182C4C}
    .fil20 {fill:#233862}
    .fil19 {fill:#233862}
    .fil0 {fill:#233963}
    .fil5 {fill:#2B478A}
    .fil17 {fill:#2B478A}
    .fil8 {fill:#2D53A0}
    .fil12 {fill:#4667AA}
    .fil30 {fill:#5D8078}
    .fil25 {fill:#7298DB}
    .fil31 {fill:#75829C}
    .fil14 {fill:#90AFF3}
    .fil29 {fill:#96A3BA}
    .fil7 {fill:#A9C5F5}
    .fil16 {fill:#AEC3FE}
    .fil28 {fill:#C05849}
    .fil11 {fill:#E7945B}
    .fil10 {fill:#EAC3A2}
    .fil3 {fill:#EC7D2B}
    .fil18 {fill:#ED7D2B}
    .fil23 {fill:#ED7D2B}
    .fil26 {fill:#ED985F}
    .fil1 {fill:#F89645}
    .fil15 {fill:#F99746}
    .fil2 {fill:#F9DCBE}
    .fil21 {fill:#FEB27D}
    .fil4 {fill:#FEB27E}
    .fil22 {fill:#FEFEFE}
    .fil13 {fill:white}
   ]]>
  </style>
 </defs>
 <g id="Camada_x0020_1">
  <metadata id="CorelCorpID_0Corel-Layer"/>
  <g id="_2877596404864">
   <path class="fil0" d="M6419.15 11708.83c-25.14,-122.81 82.61,-126.22 111.34,-71.64 32.32,64.82 -32.33,133.04 -111.34,71.64zm-4360.31 238.79l0 -115.99 251.94 0c-118.51,-310.43 -43.1,-102.34 -154.44,-269.49 -71.82,-112.58 61.06,-221.74 111.34,-272.91 82.59,85.28 79,58 201.1,98.94 -57.45,491.22 175.98,480.99 725.43,440.06l3.6 -320.67c79.01,23.87 154.43,75.05 251.39,37.53 28.73,105.74 93.37,139.85 186.74,177.38 53.87,23.89 86.19,27.3 140.05,40.93 79.02,20.48 61.06,37.53 104.15,68.23l657.2 0c-71.82,-44.35 -129.29,-44.35 -262.16,-136.45 -596.15,-419.59 -492,-1405.47 341.18,-1606.74l114.91 -17.05 7.18 -736.85c-64.64,0 -50.27,13.64 -68.24,-23.87 0,-95.52 0,-143.29 61.06,-180.81 61.05,-30.7 114.92,-20.47 193.93,-20.47l499.18 0 222.65 0 351.95 0c355.53,6.83 653.62,-78.46 685.92,225.15l-150.83 0c-21.55,95.52 -14.37,1610.15 3.6,1657.91l165.19 -13.65c28.73,30.7 25.13,34.12 68.24,51.16l-3.59 -64.8c104.14,27.29 215.47,23.87 323.21,10.23 35.91,61.4 147.24,129.63 254.97,153.51 143.65,57.99 68.24,88.7 140.07,122.81l244.19 0 0 105.74 -380.66 0 -355.53 0 -305.26 0 -161.61 6.84 3.6 115.98c35.9,30.7 43.09,20.46 82.59,61.41 25.15,23.87 35.92,51.16 46.69,92.1 7.18,95.51 -17.96,146.69 -75.41,197.85l984 0 1037.86 0 299.28 3.05 0 112.94 -6846.66 0zm2561.1 -1756.83l118.51 -20.47 -3.58 593.56c-32.33,-37.53 -28.74,-61.4 -53.88,-98.92 21.55,95.51 53.88,102.35 57.46,218.33 46.69,-17.06 57.47,-17.06 104.15,0 7.18,-180.81 136.47,-487.82 175.97,-678.86 175.97,30.7 319.63,177.39 405.81,272.9 -10.76,20.48 -10.76,23.89 -25.14,37.53 32.32,-13.64 10.78,-3.41 46.68,-13.64 53.87,122.8 114.93,180.79 132.88,361.59l-682.34 81.88 7.19 13.64c86.18,-20.46 606.92,-88.69 682.34,-78.46 3.59,102.35 -3.59,201.27 -25.14,289.97l-653.6 -184.22 7.18 17.06 642.82 173.97c-32.32,112.58 -68.22,194.45 -132.87,262.68l-64.64 -37.53 53.88 44.35c-64.66,129.63 -211.9,201.27 -323.23,249.03 -179.56,81.87 -280.1,78.46 -488.4,47.76 17.95,-160.33 118.51,-491.23 165.19,-641.33l-10.77 0 -125.7 470.76 -43.09 163.74c-208.29,-47.76 -283.71,-150.09 -409.41,-252.44 7.18,-44.34 -3.58,-13.63 10.78,-40.92 -93.37,20.45 -175.97,-303.61 -183.15,-361.61l610.52 -81.87 61.03 -10.24 0 -10.23 -61.03 6.82c-118.51,17.06 -520.74,88.7 -614.11,75.06 -25.15,-98.93 0,-204.68 17.96,-300.21 75.41,0 520.73,122.82 596.15,156.92l68.22 13.66 7.18 -6.82 -75.4 -23.89 -588.97 -150.1c17.95,-85.28 86.19,-238.79 150.82,-276.31 25.15,-88.7 190.35,-191.04 298.08,-242.21 43.1,23.88 10.77,-6.81 39.51,40.93 -7.19,-37.52 -53.88,-61.4 104.14,-81.86zm226.25 -17.07c53.87,0 118.51,6.83 158.02,30.71 -10.78,78.46 -125.7,494.65 -158.02,549.23l0 -579.94zm1447.28 1572.64l71.81 85.27 -75.41 0 -1253.35 -6.81c366.31,-112.58 703.89,-463.94 642.84,-965.42 -14.37,-119.39 -46.69,-211.51 -96.96,-307.01 -143.65,-283.14 -398.63,-433.24 -736.21,-481l0 -109.17 790.08 0 624.88 1088.22c68.22,115.98 193.92,283.14 161.59,416.17 -61.04,112.6 -147.24,10.25 -129.27,279.75zm-1454.46 -2268.55l7.18 -143.27 1569.37 0 7.18 1657.91c-71.82,-6.83 -53.86,6.82 -64.64,-68.22l-556.63 -965.42 506.36 0 7.18 -133.04c-226.25,-17.05 -506.36,-3.41 -739.8,-3.41 -211.88,0 -524.32,20.47 -721.83,6.82l-14.37 -351.37z"/>
   <path class="fil1" d="M2267.68 11289.23c82.6,85.29 79,58 201.11,98.93 129.28,-75.05 96.96,-61.4 201.11,-279.73l456.08 -968.81c10.78,-81.88 53.87,-180.81 71.83,-293.38 14.36,-105.75 35.91,-204.68 57.46,-310.43 43.09,-194.45 89.78,-378.66 147.24,-569.69 57.46,-191.04 125.69,-354.78 211.88,-518.52 61.05,-122.81 75.42,-133.04 61.05,-303.61 -7.18,-105.75 -25.13,-204.68 -46.68,-310.43l32.32 -10.24c-28.73,-17.05 -96.96,-17.05 -140.06,-27.29 -140.06,54.58 -456.09,-30.7 -610.51,-51.17l-64.64 85.29c-158.02,259.26 -211.89,358.19 -226.25,682.26 -17.96,327.49 -28.73,658.39 -53.87,989.29 -43.09,508.28 -330.39,1009.75 -298.07,1787.53z"/>
   <path class="fil2" d="M5557.26 8901.3c-125.7,-78.46 -258.57,-180.8 -373.49,-269.49 -147.24,-109.16 -147.24,-85.28 -118.51,-167.16 28.73,-81.87 64.64,-163.74 86.19,-242.2 93.37,47.76 50.27,105.75 71.82,208.09 14.37,75.05 50.28,129.63 86.19,184.21 71.83,102.34 168.79,211.5 247.8,286.55zm-797.26 -1190.55l-10.77 85.28c-28.73,208.09 -17.96,423.01 -21.55,634.51 0,85.28 -7.18,238.79 14.36,317.25 21.55,78.46 100.56,115.99 165.2,150.1 53.87,20.47 499.18,197.86 517.14,211.5l222.66 0 25.14 -105.75c96.96,13.65 93.37,10.24 186.74,-13.64 17.96,30.7 -3.59,20.47 35.91,40.93l93.38 34.12c17.95,-20.47 28.73,-27.29 46.68,-51.17 21.55,-27.29 17.96,-37.53 43.1,-68.23 -32.32,-129.63 -43.1,-320.66 -50.28,-467.35 43.09,17.06 7.18,-3.41 43.09,23.88 28.73,23.88 32.33,44.35 82.6,81.87 43.1,30.7 86.19,57.99 140.06,75.05 122.1,44.35 262.16,23.88 391.45,6.82 86.19,-23.88 229.84,-54.58 308.84,-102.34 71.83,-27.29 82.6,-10.23 82.6,-85.28 -28.73,-47.76 -35.91,-92.11 -17.95,-129.63l-64.65 -23.88 -305.25 23.88c-244.21,13.64 -258.57,-3.41 -359.13,-170.57 -64.64,-109.16 -129.28,-221.73 -190.33,-341.13 -201.11,-402.54 -143.65,-477.59 -484.82,-569.69 -50.28,180.8 -384.26,75.05 -420.18,-17.06 -79,57.99 -215.47,68.23 -316.02,156.92 -35.92,34.12 -68.24,81.87 -93.38,136.46 -21.54,47.75 -39.5,126.21 -64.64,167.15z"/>
   <path class="fil3" d="M3125.98 10139.62c-21.54,156.92 43.1,1187.14 71.83,1367.94 79.01,23.88 154.42,75.05 251.39,37.52 143.65,-95.52 122.1,-167.15 154.42,-385.48l193.93 -1429.34c43.09,-320.67 86.19,-644.74 122.1,-965.41 57.46,-566.28 -82.6,-552.63 -132.88,-934.7 -43.09,-13.65 -71.82,-13.65 -125.69,-6.83l-32.32 10.24c21.55,105.75 39.5,204.68 46.68,310.43 14.37,170.57 0,180.8 -61.05,303.61 -86.19,163.74 -154.42,327.48 -211.88,518.52 -57.46,191.03 -104.15,375.24 -147.24,569.69 -21.55,105.75 -43.1,204.68 -57.46,310.43 -17.96,112.57 -61.05,211.5 -71.83,293.38z"/>
   <path class="fil2" d="M2662.71 6625.95l25.14 194.44c61.05,95.52 132.88,296.79 193.93,412.77 43.1,85.29 193.93,341.14 233.43,361.61 -93.37,-20.47 -244.2,-146.69 -305.25,-194.45 25.13,126.22 32.32,150.1 107.73,228.56 61.05,3.41 122.1,10.23 179.56,13.64 96.97,10.24 68.24,17.06 132.88,58 75.42,47.75 186.75,78.46 290.89,95.51 43.1,10.24 111.33,10.24 140.06,27.29 53.87,-6.82 82.6,-6.82 125.69,6.83l107.74 -6.83c46.69,-3.41 46.69,6.83 79.01,-17.05 14.36,-51.17 17.95,-37.53 3.59,-88.7 -53.87,-64.81 -165.2,-98.93 -175.97,-170.56 -7.18,-51.17 43.09,-231.97 68.23,-272.91 39.51,68.23 53.87,184.21 93.37,262.67 46.69,98.93 107.74,109.16 158.02,180.8 82.6,13.65 75.42,30.7 122.1,75.05l3.59 3.41 430.95 0 0 -85.28 -64.64 -47.76c-86.19,-47.76 -341.17,-228.56 -395.04,-286.55 -57.46,-37.52 -57.46,-54.58 -82.6,-122.81 -14.36,-47.76 -32.32,-95.51 -43.09,-143.27 -32.32,-102.34 -64.64,-208.09 -89.78,-310.43 -35.91,-81.88 -50.28,-180.8 -82.6,-262.68 -32.32,-78.46 -132.88,-102.34 -226.25,-126.22 -107.74,78.46 -208.29,146.69 -395.04,126.22 -71.82,-10.23 -140.05,-34.11 -193.92,-68.22 -64.65,-34.12 -86.19,-78.46 -168.79,-71.64 -168.79,0 -262.16,64.81 -272.94,228.56z"/>
   <path class="fil0" d="M2608.85 6387.16c-3.6,88.69 -7.19,184.21 53.86,238.79 10.78,-163.75 104.15,-228.56 272.94,-228.56 150.83,-54.58 208.29,-6.82 251.39,-194.45 39.5,-187.62 10.77,-180.8 -3.6,-286.55 -21.54,-173.98 100.56,-37.52 233.44,-197.85 82.59,-98.93 86.19,-146.69 125.69,-194.45 190.33,54.58 154.42,416.18 82.6,549.22 -21.55,40.94 -32.32,40.94 -46.69,47.76l-57.46 27.29c-3.59,-3.41 -7.18,3.41 -14.36,3.41l3.59 136.46c50.28,88.69 64.64,92.1 183.15,122.8 93.37,23.88 193.93,47.76 226.25,126.22 32.32,81.88 46.69,180.8 82.6,262.68 136.47,-44.35 158.01,-201.27 96.96,-351.37 -43.09,-51.17 -71.82,-92.11 -104.14,-136.45 -280.12,-358.19 7.18,-518.53 -283.71,-924.47 -64.65,-92.11 -172.38,-129.63 -330.4,-139.87 -211.88,-13.64 -251.38,17.06 -355.53,133.04 -175.97,194.45 -405.81,712.97 -416.58,1006.35z"/>
   <path class="fil3" d="M5988.21 9065.05l10.77 44.34c355.53,6.83 653.61,-78.46 685.93,225.15l-150.84 0c-21.54,95.52 -14.36,1610.15 3.6,1657.91l0 -1640.85 158.01 -3.41c136.47,194.44 129.29,453.7 118.51,723.2 -7.18,269.49 -46.68,532.17 -57.46,788.02l10.78 105.75c104.14,27.29 215.47,23.88 323.21,10.23 64.64,-78.46 132.87,-1299.72 25.14,-1565.8 -28.73,-75.05 -68.24,-71.64 -118.51,-126.22 -50.28,-23.88 -96.97,-57.99 -158.02,-85.28 -46.69,-23.88 -118.51,-47.76 -161.61,-75.05 -179.56,-47.76 -405.81,-153.51 -599.73,-177.39 -25.14,30.7 -21.55,40.94 -43.1,68.23 -17.95,23.88 -28.73,30.7 -46.68,51.17z"/>
   <path class="fil1" d="M5284.32 9713.2c161.61,-3.41 373.49,27.29 549.46,30.7 96.97,3.41 197.52,3.41 294.48,10.24 107.74,3.41 193.93,-3.42 186.75,71.63l-7.18 133.04c3.59,167.16 7.18,324.08 17.95,491.24 7.19,150.09 32.32,330.89 32.32,474.17 10.78,75.05 -7.18,61.4 64.65,68.23l-7.19 -1657.91 -1429.31 0c-3.59,303.61 71.82,307.02 298.07,378.66z"/>
   <path class="fil1" d="M6537.67 10992.45l165.19 -13.65 28.73 -20.47 25.14 -98.92c10.78,-255.85 50.28,-518.53 57.46,-788.02 10.78,-269.5 17.96,-528.76 -118.51,-723.2l-158.01 3.41 0 1640.85z"/>
   <path class="fil4" d="M2935.65 6397.39c82.6,-6.82 104.14,37.52 168.79,71.64 53.87,34.11 122.1,57.99 193.92,68.22 186.75,20.47 287.3,-47.76 395.04,-126.22 -118.51,-30.7 -132.87,-34.11 -183.15,-122.8 -7.18,-13.65 -17.96,20.46 -21.55,-58 -125.69,-20.46 -183.15,-78.46 -229.84,-170.56 114.92,51.17 165.2,78.46 319.62,61.4 14.37,-6.82 25.14,-6.82 46.69,-47.76 71.82,-133.04 107.73,-494.64 -82.6,-549.22 -39.5,47.76 -43.1,95.52 -125.69,194.45 -132.88,160.33 -254.98,23.87 -233.44,197.85 14.37,105.75 43.1,98.93 3.6,286.55 -43.1,187.63 -100.56,139.87 -251.39,194.45z"/>
   <path class="fil5" d="M4311.1 7860.85c71.82,143.27 111.32,279.73 165.19,446.88 46.69,136.46 122.1,337.72 147.24,474.18l107.74 347.95c61.05,-30.7 114.92,-20.47 193.93,-20.47l-17.96 -211.5c-64.64,-34.11 -143.65,-71.64 -165.2,-150.1 -21.54,-78.46 -14.36,-231.97 -14.36,-317.25 3.59,-211.5 -7.18,-426.42 21.55,-634.51l-71.83 0 -430.95 0c17.96,10.24 -3.59,3.41 39.51,17.06 10.77,3.41 28.73,6.82 35.91,10.23 17.95,68.23 7.18,13.65 -10.77,37.53z"/>
   <path class="fil6" d="M5345.37 6892.03l-3.59 0c93.37,17.06 197.52,61.41 290.89,23.88 46.69,-17.06 61.05,-40.94 107.74,-54.58 79.01,-20.47 86.19,17.06 93.37,-75.05 -3.59,-71.64 -21.55,-170.57 -46.68,-235.38 -28.73,-81.87 -64.65,-109.16 -143.65,-133.04 -154.43,-23.88 -298.08,37.52 -362.72,119.39 -3.59,119.4 82.6,92.11 125.69,163.75 46.69,75.05 -39.5,143.27 -61.05,191.03z"/>
   <path class="fil7" d="M5679.36 6953.44c35.91,-34.12 71.82,-40.94 122.1,-37.53 -28.73,64.82 -64.64,75.05 -122.1,37.53zm-337.58 -61.41l10.78 75.05c82.59,139.87 100.55,197.86 298.07,228.56 96.96,-10.23 222.66,-20.47 247.79,-109.16 28.73,-95.52 -21.54,-238.8 -64.64,-300.2 -7.18,92.11 -14.36,54.58 -93.37,75.05 -46.69,13.64 -61.05,37.52 -107.74,54.58 -93.37,37.53 -197.52,-6.82 -290.89,-23.88z"/>
   <path class="fil8" d="M4939.56 9743.9c-17.95,57.99 -43.09,47.76 -86.19,85.28 197.52,13.65 509.96,-6.82 721.84,-6.82 233.43,0 513.55,-13.64 739.8,3.41 7.18,-75.05 -79.01,-68.22 -186.75,-71.63 -96.96,-6.83 -197.51,-6.83 -294.48,-10.24 -175.97,-3.41 -387.85,-34.11 -549.46,-30.7 -64.64,3.41 -129.28,-3.41 -193.93,6.82 -71.82,13.65 -93.37,44.35 -150.83,23.88z"/>
   <path class="fil7" d="M5345.37 6892.03c21.55,-47.76 107.74,-115.98 61.05,-191.03 -43.09,-71.64 -129.28,-44.35 -125.69,-163.75 64.64,-81.87 208.29,-143.27 362.72,-119.39l-14.37 -17.06c-150.83,-126.22 -545.87,0 -452.5,344.54 21.55,88.7 71.83,122.81 168.79,146.69z"/>
   <path class="fil9" d="M5234.04 7250.22c35.92,92.11 369.9,197.86 420.18,17.06l-3.59 -71.64c-197.52,-30.7 -215.48,-88.69 -298.07,-228.56 -35.92,119.4 -71.83,184.21 -118.52,283.14z"/>
   <path class="fil10" d="M5557.26 8901.3c-79.01,-75.05 -175.97,-184.21 -247.8,-286.55 -35.91,-54.58 -71.82,-109.16 -86.19,-184.21 -21.55,-102.34 21.55,-160.33 -71.82,-208.09 -21.55,78.46 -57.46,160.33 -86.19,242.2 -28.73,81.88 -28.73,58 118.51,167.16 114.92,88.69 247.79,191.03 373.49,269.49z"/>
   <path class="fil5" d="M4839.01 9477.82c53.87,61.4 61.05,191.03 100.55,266.08 57.46,20.47 79.01,-10.23 150.83,-23.88 64.65,-10.23 129.29,-3.41 193.93,-6.82 -226.25,-71.64 -301.66,-75.05 -298.07,-378.66l1429.31 0 -1569.37 0 -7.18 143.28z"/>
   <path class="fil10" d="M2799.18 7376.44l10.78 23.88c61.05,47.76 211.88,173.98 305.25,194.45 -39.5,-20.47 -190.33,-276.32 -233.43,-361.61 -61.05,-115.98 -132.88,-317.25 -193.93,-412.77l111.33 556.05z"/>
   <path class="fil0" d="M2910.51 7744.86c154.42,20.47 470.45,105.75 610.51,51.17 -104.14,-17.05 -215.47,-47.76 -290.89,-95.51 -64.64,-40.94 -35.91,-47.76 -132.88,-58 -57.46,-3.41 -118.51,-10.23 -179.56,-13.64l-7.18 115.98z"/>
   <path class="fil10" d="M4925.2 9109.39l499.18 0c-17.96,-13.64 -463.27,-191.03 -517.14,-211.5l17.96 211.5z"/>
   <path class="fil10" d="M3977.11 7717.57l143.65 0c-50.28,-71.64 -111.33,-81.87 -158.02,-180.8 -39.5,-78.46 -53.86,-194.44 -93.37,-262.67 -25.14,40.94 -75.41,221.74 -68.23,272.91 10.77,71.63 122.1,105.75 175.97,170.56z"/>
   <path class="fil9" d="M7058.4 8348.67c-17.96,37.52 -10.78,81.87 17.95,129.63 86.19,-10.24 193.93,-44.35 265.75,-78.46l43.1 -54.58c25.14,-34.12 28.73,-44.35 35.91,-92.11l-71.82 17.06 -147.24 34.11c-28.73,-40.93 -3.6,-13.64 -14.37,-51.17 -82.6,34.11 -75.42,68.23 -129.28,95.52z"/>
   <path class="fil1" d="M4738.45 10883.28c-28.73,13.65 -25.14,17.06 -46.68,40.94l-7.19 6.82 -7.18 47.76 0 10.24c14.37,61.4 14.37,61.4 68.24,105.75 3.59,3.41 7.18,6.82 10.77,6.82l10.77 0 75.42 -17.06 14.36 -3.41c21.55,-30.7 32.33,-37.52 57.46,-78.46l-7.18 -17.06 -3.59 -27.29 -7.18 -13.64c-21.55,-51.17 -10.78,-37.53 -53.87,-61.41 -46.69,-17.05 -57.46,-17.05 -104.15,0z"/>
   <path class="fil0" d="M3973.52 7806.27c-32.32,23.88 -32.32,13.64 -79.01,17.05 -39.5,126.22 71.83,109.17 175.97,109.17 43.1,0 111.33,3.41 150.83,0 71.83,-6.83 57.46,-20.47 89.79,-71.64 17.95,-23.88 28.72,30.7 10.77,-37.53 -7.18,-3.41 -25.14,-6.82 -35.91,-10.23 -43.1,-13.65 -21.55,-6.82 -39.51,-17.06l-3.59 -3.41c10.78,44.35 25.14,51.17 10.78,102.34 -57.46,-3.41 -79.01,-30.7 -125.7,-51.17 -43.09,-23.88 -104.14,-30.7 -154.42,-37.52z"/>
   <path class="fil4" d="M3973.52 7806.27c50.28,6.82 111.33,13.64 154.42,37.52 46.69,20.47 68.24,47.76 125.7,51.17 14.36,-51.17 0,-57.99 -10.78,-102.34 -46.68,-44.35 -39.5,-61.4 -122.1,-75.05l-143.65 0c14.36,51.17 10.77,37.53 -3.59,88.7z"/>
   <path class="fil9" d="M5647.04 9109.39l351.94 0 -10.77 -44.34 -93.38 -34.12c-39.5,-20.46 -17.95,-10.23 -35.91,-40.93 -93.37,23.88 -89.78,27.29 -186.74,13.64l-25.14 105.75z"/>
   <path class="fil11" d="M3510.25 6288.23l-3.59 -136.46c7.18,0 10.77,-6.82 14.36,-3.41l57.46 -27.29c-154.42,17.06 -204.7,-10.23 -319.62,-61.4 46.69,92.1 104.15,150.1 229.84,170.56 3.59,78.46 14.37,44.35 21.55,58z"/>
   <path class="fil1" d="M6419.15 11708.83c79.01,61.4 143.65,-6.83 111.33,-71.64 -28.73,-54.58 -136.46,-51.17 -111.33,71.64z"/>
   <polygon class="fil4" points="4677.4,7796.03 4749.23,7796.03 4760,7710.75 4677.4,7710.75 "/>
   <path class="fil12" d="M4856.96 11081.14l-14.36 3.41 172.38 440.06c10.77,17.06 14.36,17.06 21.55,27.29l-179.57 -470.76z"/>
   <path class="fil13" d="M5679.36 6953.44c57.46,37.52 93.37,27.29 122.1,-37.53 -50.28,-3.41 -86.19,3.41 -122.1,37.53z"/>
   <path class="fil12" d="M4436.79 11248.3c35.91,-13.65 39.5,-17.06 68.23,-40.94 14.37,-13.64 17.96,-13.64 28.73,-23.88 32.32,-23.88 14.37,-6.82 25.14,-27.29 -35.91,13.65 -35.91,17.06 -68.23,40.94 -14.37,10.23 -17.96,13.64 -28.73,20.46 -32.32,27.3 -14.37,6.83 -25.14,30.71z"/>
   <path class="fil12" d="M4627.12 11081.14c-21.54,23.88 -10.77,17.06 -14.36,30.7 46.69,-17.05 50.28,-20.46 75.42,-57.99l-61.06 27.29z"/>
   <path class="fil12" d="M5305.87 10586.5c39.5,-13.65 68.23,-37.53 93.37,-71.64 -28.73,13.65 -28.73,10.24 -53.87,30.7 -7.18,6.83 -14.36,10.24 -21.54,17.06 -14.37,17.06 -10.78,10.23 -17.96,23.88z"/>
   <path class="fil12" d="M4188.99 11442.74c10.78,-6.82 32.32,-17.05 39.51,-20.47 50.27,-34.11 21.54,-13.64 32.32,-37.52 -14.37,6.82 -32.32,10.23 -46.69,20.47 -43.09,34.11 -7.18,3.41 -25.14,37.52z"/>
   <path class="fil12" d="M4584.03 10787.77c-10.77,-20.47 17.96,-3.41 -28.73,-37.53 -14.37,-6.82 -25.14,-10.23 -39.5,-13.64 17.95,30.7 -17.96,-3.41 25.13,30.7 14.37,10.23 28.73,13.64 43.1,20.47z"/>
   <path class="fil12" d="M4314.69 11343.81c10.77,-6.82 25.13,-10.23 35.91,-17.05 53.87,-34.12 21.55,-13.65 32.32,-37.53 -10.77,6.83 -25.14,10.24 -35.91,17.06 -53.87,34.11 -21.55,13.64 -32.32,37.52z"/>
   <path class="fil12" d="M4465.52 10692.25c-10.78,-20.47 14.36,-3.41 -32.32,-34.11 -14.37,-10.24 -25.14,-13.65 -39.51,-17.06 14.37,27.29 -17.95,-3.41 25.14,30.7 14.37,10.24 28.73,13.65 46.69,20.47z"/>
   <path class="fil12" d="M4616.35 10825.29l39.5 17.06c-10.77,-20.47 0,-3.41 -17.95,-23.88 -7.18,-10.23 -17.96,-13.65 -25.14,-23.88l-28.73 -6.82c3.59,3.41 3.59,3.41 7.18,10.23 0,3.41 3.59,6.82 3.59,6.82 0,3.42 21.55,20.47 21.55,20.47z"/>
   <path class="fil12" d="M5032.93 11142.55c-14.36,-23.88 14.37,-3.42 -25.13,-30.71 -14.37,-13.64 -28.73,-17.05 -43.1,-23.88 14.37,23.88 -17.95,0 21.55,30.71 14.36,10.23 32.32,17.05 46.68,23.88z"/>
   <path class="fil12" d="M4558.89 11156.19l64.64 -27.29 -10.77 -17.06c-35.91,13.65 7.18,-13.64 -28.73,13.65 -43.1,30.7 -10.77,3.41 -25.14,30.7z"/>
   <path class="fil12" d="M5101.17 11193.72c-14.37,-23.88 14.36,0 -25.14,-30.71 -14.37,-10.23 -28.73,-13.64 -43.1,-20.46 10.78,23.87 -14.36,0 25.14,30.7 10.78,10.23 28.73,13.64 43.1,20.47z"/>
   <path class="fil12" d="M5072.44 10760.48c10.77,-6.83 25.14,-10.24 35.91,-17.06 3.59,-3.41 14.37,-10.23 17.96,-10.23 21.54,-20.47 7.18,-6.83 17.95,-23.88 -14.36,3.41 -28.73,6.82 -39.5,13.64 -3.59,3.41 -10.77,10.24 -14.37,13.65 -21.54,17.05 -7.18,3.41 -17.95,23.88z"/>
   <path class="fil12" d="M5305.87 11357.46c-14.37,-27.29 14.36,-3.41 -25.14,-30.7 -10.77,-13.65 -28.73,-17.06 -43.09,-23.88 14.36,23.88 -14.37,0 25.13,30.7 14.37,10.23 25.14,17.06 43.1,23.88z"/>
   <path class="fil12" d="M5169.4 11248.3c-14.36,-23.88 14.37,0 -25.14,-30.71 -10.77,-10.23 -28.73,-17.05 -43.09,-23.87 14.36,23.87 -14.37,3.41 25.14,30.7 10.77,13.64 28.73,17.05 43.09,23.88z"/>
   <path class="fil12" d="M5237.64 11302.88c-14.37,-27.29 17.95,0 -25.14,-30.7 -10.78,-10.24 -28.73,-17.06 -43.1,-23.88 14.37,23.88 -14.36,0 25.14,30.7 14.37,10.23 28.73,17.06 43.1,23.88z"/>
   <path class="fil12" d="M4964.7 10842.35c-21.55,10.23 -3.59,-6.82 -28.73,10.23 -32.32,27.29 -10.77,10.24 -28.73,37.53 61.05,-30.7 35.91,-10.24 57.46,-47.76z"/>
   <path class="fil12" d="M4382.92 11289.23c32.32,-10.23 -3.59,17.06 28.73,-10.23 43.09,-30.7 10.77,-3.41 25.14,-30.7 -35.91,13.64 7.18,-13.65 -28.73,10.23 -43.1,34.11 -10.78,3.41 -25.14,30.7z"/>
   <path class="fil12" d="M4260.82 11384.75c35.91,-13.65 -7.18,17.06 28.73,-10.23 43.09,-34.12 10.77,-3.42 25.14,-30.71 -32.32,10.24 7.18,-17.05 -28.73,10.24 -43.1,34.11 -10.78,3.41 -25.14,30.7z"/>
   <path class="fil12" d="M4964.7 10842.35c21.55,-6.82 3.59,6.82 28.73,-10.24 35.91,-27.29 14.37,-10.23 25.14,-30.7 -32.32,10.24 7.18,-13.64 -28.73,10.24 -35.91,30.7 -10.77,10.23 -25.14,30.7z"/>
   <path class="fil12" d="M5018.57 10801.41c25.14,-10.23 0,10.24 28.73,-13.64 35.91,-23.88 14.36,-10.24 25.14,-27.29 -25.14,10.23 3.59,-13.65 -28.73,10.23 -39.51,30.7 -10.78,6.82 -25.14,30.7z"/>
   <path class="fil12" d="M4393.69 10641.08c-10.77,-23.88 14.37,0 -25.14,-30.7 -25.13,-20.47 -3.59,-3.41 -25.13,-13.65 10.77,20.47 -7.19,6.83 14.36,27.29 14.37,10.24 21.55,10.24 35.91,17.06z"/>
   <path class="fil12" d="M5198.13 10668.37c25.14,-10.23 -3.59,10.24 28.73,-13.64 35.91,-23.88 10.78,-6.83 25.14,-27.29 -28.73,10.23 0,-10.24 -28.73,10.23 -32.32,23.88 -14.36,13.64 -25.14,30.7z"/>
   <path class="fil12" d="M5359.74 11401.81c-14.37,-20.47 3.59,-10.24 -17.96,-27.29 -14.36,-10.24 -17.95,-10.24 -35.91,-17.06 10.77,17.06 -7.18,6.82 14.36,23.88 14.37,10.23 21.55,10.23 39.51,20.47z"/>
   <path class="fil12" d="M5252 10627.44c28.73,-13.65 -7.18,13.64 28.73,-13.65 32.32,-23.88 14.37,-10.23 25.14,-27.29 -25.14,10.23 0,-10.23 -28.73,10.23 -35.91,27.29 -14.37,10.24 -25.14,30.71z"/>
   <path class="fil12" d="M5144.26 10709.31c21.55,-10.24 -3.59,10.23 28.73,-13.65 35.92,-27.29 10.78,-6.82 25.14,-27.29 -28.73,10.24 0,-10.23 -28.73,10.24 -32.32,23.87 -14.36,13.64 -25.14,30.7z"/>
   <path class="fil12" d="M4235.68 10514.86c-14.37,-20.47 14.36,0 -25.14,-27.29 -28.73,-20.47 -7.18,-3.41 -32.32,-13.64 10.77,17.05 0,10.23 21.55,23.87 14.36,13.65 17.95,10.24 35.91,17.06z"/>
   <path class="fil12" d="M4964.7 11087.96c-17.95,-30.7 -7.18,-20.46 -57.46,-47.75 14.37,23.88 3.59,23.88 57.46,47.75z"/>
   <path class="fil12" d="M4343.42 10596.73c-14.37,-23.88 14.36,3.41 -25.14,-27.29 -35.91,-27.29 0,0 -28.73,-13.64 10.77,17.05 -7.18,6.82 17.95,23.88 14.37,13.64 17.96,13.64 35.92,17.05z"/>
   <path class="fil12" d="M4515.8 10736.6c-14.37,-27.29 17.95,0 -25.14,-30.7 -25.14,-20.47 -7.19,-3.42 -25.14,-13.65 10.77,20.47 -7.18,6.82 14.36,23.88 14.37,13.64 21.55,13.64 35.92,20.47z"/>
   <path class="fil12" d="M4655.85 10842.35c14.37,27.29 7.19,20.47 57.46,47.76 -17.95,-23.88 -7.18,-27.29 -57.46,-47.76z"/>
   <path class="fil12" d="M4289.55 10555.8c-14.37,-20.47 14.36,0 -25.14,-27.29 -32.32,-23.88 -3.59,-3.41 -28.73,-13.65 10.77,17.06 -3.59,6.82 17.96,23.88 14.36,13.65 17.95,10.23 35.91,17.06z"/>
  </g>
  <g id="_2841175029488">
   <path class="fil14" d="M21785.48 8083.33c106.68,7.06 209.92,3.53 313.15,-7.06 92.91,-10.58 199.59,-45.87 285.62,-31.76 -110.12,77.64 -447.36,215.27 -615.97,236.45l17.2 -197.63zm536.83 -381.13c-123.88,-10.59 -392.3,-52.94 -392.3,-176.45 0,-102.35 96.36,-328.2 141.09,-405.84 6.88,127.04 27.53,250.56 72.27,352.9 48.17,112.93 106.67,155.28 178.94,229.39zm-767.39 -765.8c-27.53,70.58 -89.47,321.14 -117,359.96l-37.85 257.62c-13.77,158.8 -3.44,321.14 86.03,419.95 41.29,24.71 58.5,52.94 127.32,77.64 55.06,17.65 106.68,21.17 158.3,42.35l-13.77 508.18 -6.88 289.38c-6.88,179.98 -41.29,515.24 -17.21,677.57l168.62 60c295.95,63.52 419.83,98.81 746.74,63.52l117 -28.23c30.98,-88.23 10.33,-684.63 10.33,-829.32l-13.77 -328.2 58.5 -3.53c-34.41,-24.71 -392.29,-24.71 -468,-28.24 -13.76,-70.58 61.94,-427.01 75.71,-532.88 -34.41,-74.11 -24.09,-179.98 37.85,-222.33l82.59 -504.65c-6.88,-10.59 -3.44,-3.53 -13.77,-28.23 -6.88,-21.18 -3.44,-3.53 -6.88,-21.18l-79.15 -331.72c-20.64,21.17 -10.32,7.05 -34.41,-38.82l-113.56 -197.63c-41.29,-77.64 -130.76,-208.21 -151.41,-282.32 -72.27,31.76 -158.3,38.82 -237.44,74.11 -68.83,28.23 -144.53,77.64 -172.06,123.51 -65.39,95.29 -151.42,303.5 -185.83,423.49z"/>
   <path class="fil15 str0" d="M25804.81 6378.81c-68.83,10.59 -192.71,56.47 -254.65,84.7 -96.36,42.35 -134.21,77.64 -161.74,187.04 -72.26,271.73 -96.35,621.11 -147.97,906.96 -27.53,137.63 -268.41,649.34 -237.44,794.03 37.85,21.17 72.26,38.82 144.53,38.82 75.7,-28.23 333.79,-487.01 354.44,-539.94 -61.94,-28.24 -24.09,-451.72 -13.76,-532.89 0,17.65 75.7,243.51 82.59,321.14 44.73,60 89.47,285.86 65.38,367.02 -30.97,109.4 -75.71,285.85 -48.18,395.25l340.68 45.88 378.53 -3.53c6.89,-215.27 3.44,-381.13 34.42,-592.87 20.64,-130.58 68.82,-416.43 120.44,-511.71 137.65,264.67 103.23,310.55 92.91,635.22l189.27 35.29c-48.18,-21.17 -61.95,-28.23 -75.71,-67.05 123.88,-3.53 185.82,63.52 230.56,88.23l20.65 -119.99 24.09 -148.22c17.2,-88.23 20.64,-137.63 10.32,-225.86 -30.97,-264.67 -75.71,-554.06 -147.97,-801.09 -44.74,-158.8 -65.38,-204.68 -168.62,-289.38 -82.59,-63.52 -216.8,-119.98 -347.56,-119.98 -58.5,14.11 -58.5,35.29 -117,70.58 -34.42,21.17 -72.27,38.82 -120.45,56.46 -130.76,42.35 -203.03,17.65 -247.76,-74.11z"/>
   <path class="fil16" d="M27669.94 6886.99c-123.88,21.17 -178.94,28.23 -251.21,91.76 -51.62,45.87 -110.12,123.51 -158.29,179.98 -96.36,119.98 -192.71,271.73 -306.27,377.6 10.32,88.23 6.88,137.63 -10.32,225.86l-3.45 45.88c68.83,-21.18 337.24,-201.16 399.18,-176.45l6.89 21.17c17.2,63.52 -24.09,211.74 -17.21,289.38 0,24.7 3.44,24.7 6.88,35.29l113.56 -35.29c27.53,-67.05 478.33,-532.88 529.95,-550.53 -65.38,77.64 -147.97,211.74 -213.36,303.5 -106.67,148.22 -99.79,158.8 -295.94,236.44 -6.88,158.81 0,155.28 44.74,285.85l41.29 52.94c285.62,3.53 615.98,-508.18 615.98,-515.24 -3.45,105.87 -523.07,1030.48 -936.01,1048.12 -13.77,176.46 -37.85,98.82 68.82,183.51 48.18,-14.11 48.18,-42.34 65.39,-84.69 48.17,102.34 -10.33,88.22 117,137.63 55.06,21.17 141.09,45.88 192.7,67.05 240.89,38.82 498.98,84.7 736.42,0 130.77,-35.29 103.24,-21.17 110.12,-232.92 6.88,-469.36 6.88,-1242.21 -51.62,-1686.87 -37.85,-292.91 -230.56,-225.86 -368.21,-338.79 -10.32,95.29 -147.97,232.92 -223.68,271.74 -141.08,77.64 -172.06,-130.58 -213.35,-232.92z"/>
   <path class="fil17 str1" d="M26307.22 8443.29l-378.53 3.53 48.18 7.06c6.88,479.95 17.2,984.6 58.5,1461.02 34.41,402.31 261.53,938.72 206.47,1312.8l-615.97 -666.99 106.67 684.63c55.06,88.23 3.44,317.62 92.91,374.08 151.42,14.12 223.68,31.76 378.54,14.12l0 109.4 41.29 -14.12c-30.97,-14.12 -48.18,14.12 -13.76,-116.46 27.53,-105.87 -3.44,-296.44 27.53,-374.08l3.44 -222.32 68.82 285.85c37.86,98.81 41.3,254.09 89.47,342.31 144.53,-21.17 244.33,0 412.95,-35.29l6.88 -14.11c17.21,-56.47 0,-282.33 0,-345.85 -17.21,-222.33 -24.09,-434.07 -58.5,-649.34 -27.53,-179.98 -103.24,-448.19 -103.24,-617.58 -3.44,-183.51 44.74,-458.77 58.5,-656.4 17.21,-236.44 27.53,-455.24 20.65,-691.69l-27.53 169.39c-34.41,95.29 -158.29,14.12 -203.03,-141.16 -27.53,-98.81 13.77,-31.76 -48.18,-56.46 10.33,-63.52 34.42,-74.11 55.06,-130.58l-6.88 -42.34 -220.24 10.58z"/>
   <path class="fil18" d="M22776.55 8835.02c0,144.69 20.65,741.09 -10.33,829.32l-117 28.23c-13.76,127.04 -27.53,201.15 -27.53,324.67 -3.44,70.58 44.74,391.72 61.95,476.42 27.53,148.22 61.94,285.85 103.23,427.01 61.94,222.33 172.06,592.88 275.3,776.39 24.09,38.82 0,21.17 48.18,42.35 134.2,0 247.76,-45.88 344.12,-91.76 24.08,-84.69 -48.18,-381.13 -65.39,-494.06 -27.53,-169.4 -48.17,-338.79 -68.82,-508.18 -41.3,-359.96 -72.27,-734.04 -86.03,-1097.53l-37.85 -783.45c-147.98,28.24 -258.09,60 -419.83,70.59z"/>
   <path class="fil19 str2" d="M26420.78 11644.12c-44.74,28.23 -113.56,52.94 -175.5,84.7l-41.29 14.12c-82.59,24.7 -110.12,31.75 -137.65,98.81 -161.74,-17.64 -564.36,21.17 -619.42,-28.23 -34.41,28.23 -27.53,21.17 -89.47,21.17 -30.97,0 -61.94,-3.53 -92.91,0l-127.33 -3.53 -543.71 0 -141.09 0 -629.74 -7.05c-41.29,21.17 -440.46,7.05 -547.14,7.05 -20.65,3.53 -137.66,10.59 -147.98,-17.64 -3.44,-7.06 -6.88,-3.53 -10.32,-7.06 -13.77,17.65 0,24.7 -82.59,28.23l-660.71 -3.53 -357.89 0 -894.94 0 0 116.46 7780.73 0 0 -116.46 -340.62 0 -543.7 0 -629.75 0c3.44,-45.87 10.33,-45.87 -10.32,-74.11l-6.89 74.11c-72.26,0 -437.03,14.12 -498.97,-7.05l-20.65 -10.59c-17.2,14.11 -10.32,7.05 -30.96,17.64l13.76 -222.33c-168.62,35.29 -268.42,14.12 -412.95,35.29z"/>
   <path class="fil20" d="M22466.84 7719.84c72.27,-3.53 144.53,3.53 203.03,17.65 10.32,127.04 -113.56,201.15 -240.88,204.68 -13.77,105.87 -89.47,462.3 -75.71,532.88 75.71,3.53 433.59,3.53 468,28.24l354.45 7.05 189.26 7.06 92.92 -617.58 24.09 -169.39c-141.09,-38.82 -258.09,-222.33 -147.98,-247.03 55.06,-14.12 113.56,14.11 189.27,28.23l41.29 -261.15 -151.41 -3.53 -120.44 -7.06 -560.92 -24.7 -182.38 0 -82.59 504.65z"/>
   <path class="fil19 str2" d="M25625.87 10560.71l615.97 666.99c55.06,-374.08 -172.06,-910.49 -206.47,-1312.8 -41.3,-476.42 -51.62,-981.07 -58.5,-1461.02l-48.18 -7.06 -340.68 -45.88c0,352.91 -30.97,748.16 -48.17,1108.12 -6.89,176.45 -13.77,381.14 3.44,554.06 13.76,127.04 48.17,388.19 82.59,497.59z"/>
   <path class="fil15" d="M22012.6 11704.12l13.77 31.76c103.23,-7.06 209.91,0 323.47,-10.59 30.97,-10.59 13.76,0 24.09,-24.7l196.15 -1408.09 51.61 -275.26c0,-123.52 13.77,-197.63 27.53,-324.67 -326.91,35.29 -450.79,0 -746.74,-63.52 -48.17,144.69 96.36,1775.1 110.12,2075.07z"/>
   <path class="fil15" d="M27838.56 9957.25c27.53,38.82 103.24,324.67 147.97,409.36 68.82,130.58 103.24,239.98 144.53,402.31l182.39 839.91c75.7,0 103.23,-17.64 151.41,-45.87l17.2 -14.12c55.06,-303.5 65.39,-472.89 51.62,-790.5 -34.41,-144.69 -44.73,-247.04 -103.23,-381.14 -89.48,-211.74 -72.27,-112.93 -51.62,-370.55 20.65,-261.15 48.17,-642.28 37.85,-899.9 -237.44,84.7 -495.53,38.82 -736.42,0l158.3 850.5z"/>
   <path class="fil15" d="M27287.97 11100.65l-86.03 465.83c55.06,28.24 99.79,42.35 165.17,10.59 48.18,-49.41 151.42,-247.03 192.71,-324.67 27.53,-56.46 55.06,-112.93 82.59,-172.92 17.21,-42.35 55.06,-151.75 75.71,-183.51 30.97,-130.58 72.26,-232.92 92.91,-377.61 20.65,-162.33 -17.21,-278.79 3.44,-419.95 -37.85,-28.23 -220.24,-419.96 -258.09,-490.54 -41.29,-84.69 -216.8,-458.77 -258.09,-497.59 -20.65,335.26 -6.88,677.57 48.18,1002.24 48.17,285.86 13.76,716.4 -58.5,988.13z"/>
   <path class="fil20" d="M27590.79 6347.05c79.15,-59.99 20.65,-183.51 144.53,-250.56 24.09,42.35 44.74,112.93 72.27,165.86 30.97,60 72.26,112.93 113.56,141.16l3.44 -24.7c-30.97,-24.7 -27.53,-21.17 -41.3,-49.41 -34.41,-28.23 -17.2,49.41 -27.53,-45.87 13.77,3.53 10.33,0 27.53,10.58 24.09,21.18 3.45,0 20.65,28.24 37.86,35.29 89.47,45.87 154.86,52.93 0,38.82 0,77.64 -10.33,112.93 -10.32,42.35 -37.85,56.46 -17.2,84.7 61.94,-67.05 13.76,-42.35 110.11,-42.35 130.77,-3.53 203.04,-257.62 147.98,-377.61 3.44,0 6.88,-7.06 10.32,-3.53l41.29 -14.11c37.86,-14.12 24.09,-3.53 51.62,-31.76 10.33,-10.59 51.62,-70.58 58.5,-88.23 27.53,-84.7 -3.44,-187.04 -61.94,-215.27 -55.06,-17.65 -58.5,-14.12 -117,-3.53 0,-10.59 -41.29,10.59 20.65,-24.7l-34.41 -3.53c-86.03,10.59 -117.01,45.88 -147.98,109.4 -151.41,-67.05 -199.59,-52.94 -381.97,88.22 -24.09,21.18 -127.32,112.93 -141.09,141.17 -34.41,70.58 -20.65,176.45 3.44,239.97z"/>
   <path class="fil14" d="M22776.55 6742.3c24.09,112.93 137.65,374.08 137.65,455.25 61.94,-7.06 361.32,-7.06 378.53,42.34l120.44 7.06c-48.18,-155.28 -99.79,-483.48 -172.06,-603.46 -58.5,-98.82 -333.8,-257.62 -485.21,-307.03l20.65 405.84z"/>
   <path class="fil20" d="M22084.87 5450.68c-34.42,91.75 -79.15,112.92 -55.06,257.61 13.76,98.82 65.38,165.87 86.03,243.51 65.38,52.93 61.94,119.98 158.29,141.16 27.53,-10.59 27.53,14.12 17.21,-21.18 -3.44,-59.99 3.44,-77.63 -17.21,-123.51 -17.2,-35.29 -30.97,-38.82 -24.09,-81.17 3.45,-38.82 3.45,-24.7 10.33,-35.29 86.03,-17.64 20.65,35.29 113.56,42.35 75.7,-56.47 20.65,-148.22 103.23,-187.04 72.27,-35.29 178.95,-3.53 268.42,-42.35 134.2,-52.93 6.88,-109.4 -34.41,-194.09 -41.3,-10.59 -27.53,-14.12 -68.83,-45.88 -251.21,-187.04 -443.91,-10.59 -557.47,45.88z"/>
   <path class="fil21" d="M22336.07 6124.72c230.57,84.7 254.65,0 333.8,63.52 -48.18,49.41 -123.88,31.76 -192.71,17.65 -92.91,-21.18 -86.03,-35.29 -141.09,-81.17zm-44.73 -52.94l17.2 35.3 -17.2 141.16 79.15 197.62c61.94,21.18 134.2,28.23 203.03,21.18 75.7,-7.06 103.23,-35.29 113.56,-109.4l-17.21 -98.82 0 -84.69c44.74,-35.29 48.18,-3.53 75.71,-70.58 17.2,-38.82 20.64,-98.82 24.09,-144.69l-24.09 -314.09c-89.47,38.82 -196.15,7.06 -268.42,42.35 -82.58,38.82 -27.53,130.57 -103.23,187.04 -92.91,-7.06 -27.53,-59.99 -113.56,-42.35 -6.88,10.59 -6.88,-3.53 -10.33,35.29 -6.88,42.35 6.89,45.88 24.09,81.17 20.65,45.88 13.77,63.52 17.21,123.51z"/>
   <path class="fil22" d="M22370.49 6445.86c17.2,102.34 86.03,296.44 79.14,388.2l79.15 331.72c3.44,17.65 0,0 6.88,21.18 10.33,24.7 6.89,17.64 13.77,28.23l182.38 0c79.15,3.53 123.89,17.65 182.39,-17.64 0,-81.17 -113.56,-342.32 -137.65,-455.25l-89.47 -384.66c-10.33,74.11 -37.86,102.34 -113.56,109.4 -68.83,7.05 -141.09,0 -203.03,-21.18z"/>
   <path class="fil14" d="M27515.09 8217.43l-220.24 0 -58.5 585.82c412.94,-17.64 932.56,-942.25 936.01,-1048.12 0,7.06 -330.36,518.77 -615.98,515.24l-41.29 -52.94z"/>
   <path class="fil21" d="M27590.79 6347.05c6.88,67.05 13.77,130.57 30.97,197.62 20.65,74.11 34.42,109.4 123.89,105.88 106.67,-7.06 147.97,-21.18 230.56,-56.47 -44.74,77.64 -103.24,137.63 -230.56,148.22l-10.33 105.87 79.15 278.79 117 -144.69c48.18,-63.52 89.47,-109.4 130.77,-172.92l-30.97 -236.44c-20.65,-28.24 6.88,-42.35 17.2,-84.7 10.33,-35.29 10.33,-74.11 10.33,-112.93 -65.39,-7.06 -117,-17.64 -154.86,-52.93l-20.65 7.05c13.77,28.24 10.33,24.71 41.3,49.41 34.41,21.17 27.53,7.06 51.62,63.52 -72.27,-24.7 -44.74,-17.64 -55.06,-38.82 -41.3,-28.23 -82.59,-81.16 -113.56,-141.16 -27.53,-52.93 -48.18,-123.51 -72.27,-165.86 -123.88,67.05 -65.38,190.57 -144.53,250.56z"/>
   <path class="fil18" d="M27305.17 8986.76l-6.88 123.52c41.29,38.82 216.8,412.9 258.09,497.59 37.85,70.58 220.24,462.31 258.09,490.54l24.09 -141.16 -158.3 -850.5c-51.61,-21.17 -137.64,-45.88 -192.7,-67.05 -127.33,-49.41 -68.83,-35.29 -117,-137.63 -17.21,42.35 -17.21,70.58 -65.39,84.69z"/>
   <path class="fil21" d="M25649.95 5549.49c-48.17,49.4 -103.23,74.11 -117,165.86 -17.2,91.76 -10.32,194.1 10.33,275.27l17.2 35.29c48.18,-3.53 82.59,-14.12 137.65,-3.53 209.91,45.88 189.27,3.53 388.86,-81.17l0 -7.06c-51.62,-28.23 -151.42,-84.69 -113.56,-169.39 24.09,-52.94 106.67,-74.11 92.91,-179.98 -134.21,-105.87 -268.41,-52.94 -416.39,-35.29z"/>
   <path class="fil19 str2" d="M25058.07 8549.16c172.06,70.58 120.44,310.56 120.44,582.29l-13.77 2149.18 -3.44 416.43 79.15 0 0 -444.66c10.32,-465.83 -6.88,-949.31 -6.88,-1418.67 0,-236.44 0,-476.42 0,-716.39 0,-257.62 48.17,-462.31 -120.44,-603.47 -41.3,14.12 -24.09,3.53 -55.06,35.29z"/>
   <path class="fil23 str3" d="M26307.22 8434.98l220.24 -10.59 17.21 -356.43c-6.89,-56.47 -27.53,-67.05 10.32,-102.34 10.32,-324.67 44.74,-370.55 -92.91,-635.23 -51.62,95.29 -99.8,381.14 -120.44,511.71 -30.98,211.74 -27.53,377.61 -34.42,592.88z"/>
   <path class="fil14" d="M23196.38 8764.43l37.85 783.45c89.47,-7.06 161.74,-52.94 230.56,-81.17 -3.44,-155.28 -134.21,-871.67 -110.12,-931.66l10.32 -17.65 -189.26 -7.06c10.32,84.7 34.41,176.46 20.65,254.09z"/>
   <path class="fil21" d="M27449.7 7942.17l-113.56 35.29c-75.7,21.18 -378.53,119.99 -437.03,52.94 -44.74,-24.71 -106.68,-91.76 -230.56,-88.23 13.76,38.82 27.53,45.88 75.71,67.05l-189.27 -35.29c-37.85,35.29 -17.21,45.88 -10.32,102.34 44.73,45.88 44.73,77.64 110.11,109.4 61.95,24.71 130.77,14.12 199.59,14.12l440.48 17.64 220.24 0c-44.74,-130.57 -51.62,-127.04 -44.74,-285.85l-20.65 10.59z"/>
   <path class="fil22" d="M25543.28 5990.62c-24.09,-21.18 -17.21,28.23 -20.65,-17.65 -44.74,314.09 -27.53,377.61 285.62,352.91 96.35,-52.94 110.12,-31.77 185.82,-109.4 51.62,-56.47 82.59,-119.99 96.36,-215.28l-3.44 -59.99c-199.59,84.7 -178.95,127.05 -388.86,81.17 -55.06,-10.59 -89.47,0 -137.65,3.53l-17.2 -35.29z"/>
   <path class="fil22" d="M22776.55 8835.02c161.74,-10.59 271.85,-42.35 419.83,-70.59 13.76,-77.63 -10.33,-169.39 -20.65,-254.09l-354.45 -7.05 -58.5 3.53 13.77 328.2z"/>
   <path class="fil24 str4" d="M25446.92 11813.52c55.06,49.4 457.68,10.58 619.42,28.23 27.53,-67.05 55.06,-74.11 137.65,-98.81l0 -109.4c-154.86,17.64 -227.12,0 -378.54,-14.12 -113.55,116.46 -309.7,84.7 -378.53,194.1z"/>
   <path class="fil22" d="M25649.95 5549.49c147.98,-17.65 282.18,-70.58 416.39,35.29 13.76,105.87 -68.82,127.04 -92.91,179.98 -37.86,84.7 61.94,141.16 113.56,169.39 82.59,-14.11 141.09,-91.75 141.09,-190.56 3.44,-225.86 -172.06,-324.68 -371.65,-299.97 -82.59,7.06 -192.71,59.99 -206.48,105.87z"/>
   <path class="fil21" d="M25808.25 6325.88l-3.44 52.93c44.73,91.76 117,116.46 247.76,74.11 48.18,-17.64 86.03,-35.29 120.45,-56.46 58.5,-35.29 58.5,-56.47 117,-70.58 -51.62,-56.47 -72.27,-81.17 -110.12,-148.22 -37.85,-60 -58.5,-123.52 -89.47,-176.46 -13.77,95.29 -44.74,158.81 -96.36,215.28 -75.7,77.63 -89.47,56.46 -185.82,109.4z"/>
   <path class="fil15" d="M26527.46 8432.71l6.88 42.34c92.92,31.77 89.47,49.41 213.36,42.35 44.73,-70.58 92.91,-218.8 106.67,-317.61 -68.82,0 -137.64,10.59 -199.59,-14.12 -65.38,-31.76 -65.38,-63.52 -110.11,-109.4l-17.21 356.44z"/>
   <path class="fil25" d="M22322.31 7702.2c-72.27,-74.11 -130.77,-116.46 -178.94,-229.39 -44.74,-102.34 -65.39,-225.86 -72.27,-352.9 -44.73,77.64 -141.09,303.49 -141.09,405.84 0,123.51 268.42,165.86 392.3,176.45z"/>
   <path class="fil24" d="M26850.93 11813.52l20.65 10.58c61.94,21.18 426.71,7.06 498.98,7.06l6.88 -74.11c0,-91.75 -37.86,-45.88 -10.33,-179.98 -65.38,31.76 -110.11,17.65 -165.17,-10.59 -20.65,28.24 -51.62,49.41 -75.71,77.64 -24.09,24.71 -44.74,56.47 -72.27,74.11 -68.82,49.41 -137.64,17.65 -203.03,95.29z"/>
   <path class="fil24" d="M28313.45 11608.83c-30.98,45.88 -68.83,112.93 -130.77,134.11 -75.71,24.7 -130.77,10.58 -165.18,88.22l543.71 0c0,-158.8 -51.62,-141.16 -72.26,-236.44l-24.09 -31.76c-48.18,28.23 -75.71,45.87 -151.41,45.87z"/>
   <path class="fil24" d="M23110.35 11739.41l6.88 67.05c3.44,3.53 6.88,0 10.32,7.06 10.32,28.23 127.33,21.17 147.97,17.64 106.68,0 505.86,14.12 547.15,-7.06 -20.64,-56.46 -123.88,-52.93 -199.59,-81.16 -75.7,-28.24 -120.44,-60 -168.61,-95.29 -96.36,45.88 -209.92,91.76 -344.12,91.76z"/>
   <path class="fil21" d="M24789.65 8683.27l65.39 -49.41c41.29,-42.35 123.88,-67.05 203.03,-84.7 30.97,-31.76 13.76,-21.17 55.06,-35.29l34.41 -123.51c-72.27,0 -106.68,-17.65 -144.53,-38.82 -44.74,38.82 -123.89,21.17 -203.03,102.34 -55.06,56.46 -86.03,130.57 -68.83,222.33l58.5 7.06z"/>
   <path class="fil21" d="M26758.02 8633.86l-10.32 -116.46c-123.89,7.06 -120.44,-10.58 -213.36,-42.35 -20.64,56.47 -44.73,67.06 -55.06,130.58 61.95,24.7 20.65,-42.35 48.18,56.46 44.74,155.28 168.62,236.45 203.03,141.16l27.53 -169.39z"/>
   <path class="fil25" d="M21785.48 8083.33l-17.2 197.63c168.61,-21.18 505.85,-158.81 615.97,-236.45 -86.03,-14.11 -192.71,21.18 -285.62,31.76 -103.23,10.59 -206.47,14.12 -313.15,7.06z"/>
   <path class="fil25" d="M22150.25 6315.29c20.65,74.11 110.12,204.68 151.41,282.32l113.56 197.63c24.09,45.87 13.77,59.99 34.41,38.82 6.89,-91.76 -61.94,-285.86 -79.14,-388.2l-79.15 -197.62c-72.27,14.11 -103.24,28.23 -141.09,67.05z"/>
   <path class="fil14" d="M27735.32 6848.17c-55.06,7.06 -51.62,7.06 -65.38,38.82 41.29,102.34 72.27,310.56 213.35,232.92 75.71,-38.82 213.36,-176.45 223.68,-271.74 -17.2,-35.29 10.33,-17.64 -44.73,-38.82 -41.3,63.52 -82.59,109.4 -130.77,172.92l-117 144.69 -79.15 -278.79z"/>
   <path class="fil21" d="M22428.99 7942.17c127.32,-3.53 251.2,-77.64 240.88,-204.68 -58.5,-14.12 -130.76,-21.18 -203.03,-17.65 -61.94,42.35 -72.26,148.22 -37.85,222.33z"/>
   <path class="fil21" d="M23482 7730.43l30.97 -17.65c24.08,-70.58 27.53,-130.57 10.32,-201.15 -75.71,-14.12 -134.21,-42.35 -189.27,-28.23 -110.11,24.7 6.89,208.21 147.98,247.03z"/>
   <path class="fil14" d="M27449.7 7942.17l20.65 -10.59c196.15,-77.64 189.27,-88.22 295.94,-236.44 65.39,-91.76 147.98,-225.86 213.36,-303.5 -51.62,17.65 -502.42,483.48 -529.95,550.53z"/>
   <path class="fil24" d="M22026.37 11735.88l-10.33 95.28 357.89 0 -24.09 -105.87c-113.56,10.59 -220.24,3.53 -323.47,10.59z"/>
   <path class="fil18 str3" d="M25501.98 7850.42c30.97,-38.82 68.83,-162.34 68.83,-211.75 -6.89,-77.63 -82.59,-303.49 -82.59,-321.14 -10.33,81.17 -48.18,504.65 13.76,532.89z"/>
   <path class="fil14" d="M26943.85 7762.19l-24.09 148.22c130.76,-35.29 347.56,-197.63 419.82,-278.79 -61.94,-24.71 -330.35,155.27 -399.18,176.45l3.45 -45.88z"/>
   <path class="fil25" d="M22687.08 6357.64l89.47 384.66 -20.65 -405.84c-24.09,-45.88 -37.85,-56.46 -86.03,-77.64l17.21 98.82z"/>
   <path class="fil26" d="M27745.65 6650.55l0 91.75c127.32,-10.59 185.82,-70.58 230.56,-148.22 -82.59,35.29 -123.89,49.41 -230.56,56.47z"/>
   <polygon class="fil27 str4" points="25137.21,11831.16 25264.54,11834.69 25240.45,11697.06 25161.3,11697.06 "/>
   <path class="fil26" d="M22336.07 6124.72c55.06,45.88 48.18,59.99 141.09,81.17 68.83,14.11 144.53,31.76 192.71,-17.65 -79.15,-63.52 -103.23,21.18 -333.8,-63.52z"/>
   <path class="fil28" d="M22731.81 7215.19l560.92 24.7c-17.21,-49.4 -316.59,-49.4 -378.53,-42.34 -58.5,35.29 -103.24,21.17 -182.39,17.64z"/>
   <path class="fil14" d="M23482 7730.43l-24.09 169.39c113.56,-21.17 65.38,-77.64 55.06,-187.04l-30.97 17.65z"/>
   <path class="fil20" d="M24789.65 8683.27c-6.88,70.58 0,31.76 13.77,49.4 34.41,-14.11 24.09,-3.53 37.85,-35.29 0,-3.53 10.32,-52.93 13.77,-63.52l-65.39 49.41z"/>
   <path class="fil29" d="M28389.15 5800.05c-3.44,-49.41 -96.35,-49.41 -130.76,-31.76l34.41 3.53c-61.94,35.29 -20.65,14.11 -20.65,24.7 58.5,-10.59 61.94,-14.12 117,3.53z"/>
   <path class="fil20" d="M27924.59 6378.81l-3.44 24.7c10.32,21.18 -17.21,14.12 55.06,38.82 -24.09,-56.46 -17.21,-42.35 -51.62,-63.52z"/>
   <path class="fil20" d="M27883.29 6329.4l20.65 -7.05c-17.2,-28.24 3.44,-7.06 -20.65,-28.24 -17.2,-10.58 -13.76,-7.05 -27.53,-10.58 10.33,95.28 -6.88,17.64 27.53,45.87z"/>
   <polygon class="fil30" points="28488.95,11594.72 28482.06,11548.84 28464.86,11562.96 "/>
   <path class="fil31" d="M22274.13 6092.96l34.41 14.12 -17.2 -35.3c10.32,35.3 10.32,10.59 -17.21,21.18z"/>
  </g>
 </g>
</svg>
